PathFileType	4	(X/Y/Z)	C:/Users/opensim2020/Desktop/walking_exp_matlab/subject03_walking06_straight_03.trc																																																																																																																																		
DataRate	CameraRate	NumFrames	NumMarkers	Units	OrigDataRate	OrigDataStartFrame	OrigNumFrames																																																																																																																														
100	100	9	44	mm	100	2205	280																																																																																																																														
Frame#	Time	LFHD			RFHD			LBHD			RBHD			C7			T10			CLAV			STRN			RBAK			LSHO			LUPA			LELB			LFRM			LWRA			LWRB			LFIN			RSHO			RUPA			RELB			RFRM			RWRA			RWRB			RFIN			LASI			RASI			LPSI			RPSI			LTHI			LKNE			LTIB			LANK			LHEE			LTOE			RTHI			RKNE			RTIB			RANK			RHEE			RTOE			*39			*40			*41			*42			*43		
		X1	Y1	Z1	X2	Y2	Z2	X3	Y3	Z3	X4	Y4	Z4	X5	Y5	Z5	X6	Y6	Z6	X7	Y7	Z7	X8	Y8	Z8	X9	Y9	Z9	X10	Y10	Z10	X11	Y11	Z11	X12	Y12	Z12	X13	Y13	Z13	X14	Y14	Z14	X15	Y15	Z15	X16	Y16	Z16	X17	Y17	Z17	X18	Y18	Z18	X19	Y19	Z19	X20	Y20	Z20	X21	Y21	Z21	X22	Y22	Z22	X23	Y23	Z23	X24	Y24	Z24	X25	Y25	Z25	X26	Y26	Z26	X27	Y27	Z27	X28	Y28	Z28	X29	Y29	Z29	X30	Y30	Z30	X31	Y31	Z31	X32	Y32	Z32	X33	Y33	Z33	X34	Y34	Z34	X35	Y35	Z35	X36	Y36	Z36	X37	Y37	Z37	X38	Y38	Z38	X39	Y39	Z39	X40	Y40	Z40	X41	Y41	Z41	X42	Y42	Z42	X43	Y43	Z43	X44	Y44	Z44
																																																																																																																																					
211	2.1	820.41974	1621.12109	1403.34766	827.16089	1627.70386	1536.27258	692.05542	1577.57886	1415.28247	703.88684	1583.93506	1545.67065	665.01978	1421.33252	1480.17383	629.64789	1107.60059	1478.23608	786.09589	1343.87268	1469.65735	828.99359	1179.86572	1461.81458	620.00665	1246.71692	1582.20239	727.41443	1380.80322	1318.34766	705.5661	1182.60437	1248.88562	708.72809	1059.05115	1237.60999	733.40869	931.06976	1237.73804	750.96631	812.74683	1268.32715	727.42462	818.6181	1217.34009	742.25275	735.44006	1226.63477	755.25928	1368.76575	1632.30603	791.91235	1152.28687	1710.47632	830.01978	1047.04053	1723.66309	881.52289	920.2793	1721.68164	931.78571	837.21924	1680.30969	907.2627	823.17798	1726.40137	949.18781	763.00006	1713.70105	793.99744	942.76361	1355.87512	798.73059	946.67749	1592.82837	632.54852	960.6214	1407.16382	636.94421	977.6759	1555.82996	812.42419	649.41211	1295.40369	878.26477	481.97614	1317.09143	804.20544	297.31683	1335.06335	755.4812	97.12252	1388.68469	714.59119	69.13725	1435.1969	892.10547	44.04181	1388.73755	720.62006	654.25916	1631.07458	711.88672	474.85825	1595.00867	643.73364	294.74066	1594.7749	596.92279	83.37966	1541.64209	553.01996	55.79502	1489.20142	737.14801	35.92932	1529.16528	740.53656	1682.94678	1461.11414	NaN	NaN	NaN	NaN	NaN	NaN	NaN	NaN	NaN	NaN	NaN	NaN
212	2.11	830.16168	1620.20947	1402.33179	837.36676	1627.20093	1535.39185	701.93243	1576.68298	1414.84033	714.05804	1583.37805	1545.08704	674.68799	1420.62573	1479.82214	639.32239	1107.03369	1477.50305	795.84442	1343.04309	1469.22559	838.64038	1179.00391	1461.70142	629.69202	1246.23303	1581.98425	736.82574	1379.92676	1317.93359	713.03455	1181.78552	1248.64722	714.90277	1058.17017	1237.37805	738.23773	929.96912	1237.58252	754.71747	811.57385	1268.18811	731.23773	817.6734	1217.09619	745.74677	734.22375	1226.38843	765.31281	1368.19116	1631.95972	803.06964	1152.0752	1710.20813	842.50171	1047.4165	1723.46606	895.8457	921.45276	1721.01929	947.11896	839.37024	1679.15918	922.97742	824.76514	1725.31958	965.98053	765.42194	1712.29004	804.22113	941.70447	1356.21069	807.44983	946.00348	1593.02856	643.27576	959.95624	1406.55481	645.99066	977.50531	1554.91943	822.66516	648.55139	1294.73071	888.36414	481.41428	1318.04297	823.39276	293.51941	1335.92175	786.45258	90.68444	1388.64185	747.98737	60.23576	1435.66882	926.3703	44.32233	1387.27649	726.85254	654.09741	1631.09277	716.06171	474.85229	1595.29932	645.84845	295.42871	1594.87524	597.15491	84.24044	1541.625	553.31708	57.03806	1489.02893	737.38574	35.91179	1529.3418	750.38245	1682.05322	1459.98389	NaN	NaN	NaN	NaN	NaN	NaN	NaN	NaN	NaN	NaN	NaN	NaN
213	2.12	839.87958	1619.23853	1401.30823	847.32892	1626.41284	1534.11792	711.71204	1575.67358	1414.25586	724.16962	1582.68591	1544.41602	684.82019	1419.97839	1479.55298	649.11768	1106.13379	1476.37866	805.65033	1342.11255	1468.77246	848.33112	1178.10217	1461.57861	639.47571	1245.67126	1581.58435	746.34503	1379.01038	1317.44666	720.79095	1180.99817	1248.29871	721.23132	1057.29822	1237.16064	743.3479	928.93475	1237.36853	758.70502	810.31226	1268.15784	735.00031	816.3916	1217.33215	748.53961	733.02466	1226.79077	775.33789	1367.49231	1631.51855	814.383	1151.88745	1710.07642	854.91382	1047.64307	1722.99976	909.91913	922.50159	1720.25928	962.07977	841.30701	1677.82288	938.54822	826.24231	1724.11096	982.47711	767.77277	1710.77002	814.38885	940.28229	1356.15271	816.28528	945.27112	1593.13	651.63025	960.06445	1405.25769	655.08704	977.25305	1553.89819	832.12323	647.2688	1294.51355	898.3327	480.5144	1319.0946	842.48071	289.93121	1336.80457	817.85864	84.90051	1388.5636	781.69458	52.55568	1435.86279	960.05463	44.90928	1385.72656	733.08179	653.89813	1631.10083	720.42432	474.81967	1595.5957	648.01691	296.10706	1594.99402	597.62366	85.326	1541.76953	553.68512	58.35893	1488.922	737.51685	35.79188	1529.54272	760.26373	1680.99951	1458.64575	NaN	NaN	NaN	NaN	NaN	NaN	NaN	NaN	NaN	NaN	NaN	NaN
214	2.13	849.59528	1618.18958	1400.30933	857.36377	1625.64124	1533.05981	721.57123	1574.46277	1413.88342	734.22052	1581.88672	1543.79749	694.78418	1419.06079	1479.15405	658.75195	1105.34351	1475.31799	815.57959	1341.07275	1468.33704	858.13483	1177.0509	1461.37476	649.29895	1244.92358	1581.04431	756.08148	1378.00708	1316.87854	728.56653	1180.01233	1247.84583	727.72992	1056.41577	1236.89063	748.55768	927.77698	1237.45459	763.01227	809.08923	1268.03345	739.16626	815.28076	1217.35559	751.95673	731.8407	1227.03772	785.40576	1366.68433	1631.01831	825.58875	1151.55383	1709.86182	867.03955	1047.76306	1722.84534	923.82196	923.45508	1719.40759	976.8222	843.12207	1676.39905	953.82892	827.62585	1722.78931	998.59662	769.91937	1709.10535	824.58405	938.75305	1356.02747	825.211	944.38989	1593.11035	662.08954	958.96729	1404.13464	664.27087	976.95129	1552.78503	840.94171	645.64429	1294.92407	907.88159	479.06189	1320.8147	861.37	286.6918	1337.67664	848.6507	79.73276	1387.75806	815.15796	46.23779	1435.72888	993.09064	45.7223	1383.91809	739.33984	653.72247	1631.19568	724.90546	474.7652	1595.83105	650.31714	296.75156	1595.02722	598.00519	86.18916	1541.87427	554.01038	59.68828	1488.8562	737.64825	35.71109	1529.77124	770.02448	1680.10303	1457.90161	NaN	NaN	NaN	NaN	NaN	NaN	NaN	NaN	NaN	NaN	NaN	NaN
215	2.14	859.185	1617.04382	1399.06238	867.38104	1624.79504	1532.03418	731.6781	1573.57153	1413.32898	744.34381	1580.92688	1543.09509	704.8894	1418.21838	1478.6698	668.84491	1104.46985	1474.0658	825.55035	1339.91577	1467.83594	867.97955	1175.91101	1461.08752	659.17163	1244.05676	1580.36536	766.02924	1376.9469	1316.2981	736.08234	1179.07642	1247.72778	734.12665	1055.41809	1236.53101	753.85785	926.6568	1237.005	767.44177	807.89886	1268.04553	743.44781	814.22174	1217.39087	755.52698	730.56891	1227.2561	795.44635	1365.74512	1630.42834	836.68732	1151.05273	1709.54114	879.11865	1047.7168	1722.44727	937.45416	924.19769	1718.43152	991.23932	844.76874	1674.87744	968.80444	828.84326	1721.40137	1014.41895	771.914	1707.31531	834.7464	936.99463	1355.73828	834.25049	943.54114	1592.96265	672.35785	958.03131	1402.97119	673.52002	976.49664	1551.58423	849.07733	643.28601	1295.08057	917.33795	477.5787	1322.63159	879.88617	283.85944	1338.54492	879.14667	76.12727	1386.85413	847.5249	41.37105	1434.77002	1025.32837	46.48362	1382.01343	745.71973	653.46698	1630.93188	729.54889	474.65207	1596.04114	652.98047	297.43976	1595.25562	598.40802	87.11446	1541.96411	554.43011	61.14351	1488.77686	737.81165	35.68112	1530.03101	779.84479	1678.93213	1456.72302	NaN	NaN	NaN	NaN	NaN	NaN	NaN	NaN	NaN	NaN	NaN	NaN
216	2.15	868.92163	1615.92163	1398.01868	877.3938	1623.86377	1530.9812	741.50745	1572.29578	1412.64539	754.45471	1579.84937	1542.3999	714.75604	1416.86536	1477.73779	678.63354	1103.5675	1472.71509	835.65509	1338.70996	1467.26855	877.92365	1174.6676	1460.71082	669.15417	1243.12305	1579.61914	776.10791	1375.74438	1315.64282	743.9809	1178.13257	1247.35632	740.58417	1054.38135	1236.21924	759.32391	925.49457	1236.78601	772.27441	806.73981	1267.88989	747.89777	813.11823	1217.43945	759.31622	729.37665	1227.51831	805.5434	1364.70313	1629.84204	847.94025	1150.54639	1709.34583	890.93896	1047.47412	1722.01685	950.83362	924.77332	1717.41504	1005.24152	846.06958	1673.20862	983.47394	829.88611	1719.94812	1029.89026	773.70001	1705.48853	844.96716	935.19635	1355.38	843.37469	942.5415	1592.74792	682.18213	956.94415	1401.77454	682.82635	975.97321	1550.32739	856.63757	640.54669	1295.6416	926.30359	475.77063	1324.81116	897.86292	281.53085	1339.40234	908.94336	73.48566	1385.18384	878.70044	38.36715	1432.81836	1056.57385	47.49927	1379.87744	752.16144	653.25702	1630.8324	734.36877	474.50253	1596.43811	655.50293	297.96149	1595.21887	598.92609	88.16904	1542.08789	554.77783	62.61687	1488.77393	737.966	35.70684	1530.29333	789.50446	1678.33752	1456.34644	NaN	NaN	NaN	NaN	NaN	NaN	NaN	NaN	NaN	NaN	NaN	NaN
217	2.16	878.7251	1614.72949	1397.22205	887.40137	1622.927	1529.95947	751.39471	1570.8844	1411.95715	764.62469	1578.72253	1541.68091	725.10736	1415.89063	1477.36182	688.57404	1102.43396	1471.44775	845.75897	1337.41455	1466.64368	887.95398	1173.35608	1460.25354	679.18652	1241.98962	1578.68945	786.33893	1374.53601	1314.82776	752.17633	1177.09155	1246.84241	747.49762	1053.53687	1235.87891	765.03882	924.29596	1236.64526	777.23724	805.40356	1267.80615	752.52496	811.95856	1217.51868	763.25012	728.14642	1227.72021	815.66943	1363.49744	1629.17053	858.70935	1149.6958	1708.74426	902.6377	1047.07166	1721.42273	963.87927	925.11395	1716.27271	1019.20239	847.31946	1671.69067	997.91327	830.68207	1718.49719	1044.89185	775.21185	1703.56128	855.18347	933.32117	1354.84021	852.57117	941.47803	1592.47131	692.53479	955.77478	1400.44043	692.17493	975.27576	1548.97449	863.80493	637.47064	1296.5127	934.82013	473.48874	1328.04797	915.3894	279.772	1340.41602	937.46704	71.73464	1383.07068	908.87128	37.31395	1430.44055	1086.50867	48.47645	1377.46313	758.60797	652.93945	1630.67749	739.29816	474.2843	1596.73206	658.14648	298.62384	1595.4552	599.41772	89.14242	1542.27563	555.15387	64.12319	1488.85327	737.97821	35.58265	1530.52173	799.43567	1676.87695	1455.68921	NaN	NaN	NaN	NaN	NaN	NaN	NaN	NaN	NaN	NaN	NaN	NaN
218	2.17	888.41956	1613.51697	1395.9054	897.51703	1621.99048	1528.96692	761.32184	1569.35303	1411.19434	774.75244	1577.44861	1540.86768	735.42493	1414.67639	1476.60547	698.70953	1101.3291	1469.97791	856.01196	1336.12036	1465.99438	898.06226	1171.97571	1459.64771	689.19043	1240.72546	1577.70398	796.66461	1373.22974	1314.02869	760.67566	1175.94116	1246.35828	754.46893	1052.39685	1235.45483	770.92786	923.0307	1236.33032	782.40729	804.20911	1267.70959	757.32806	810.76349	1217.57239	767.37183	726.86047	1227.89685	825.83386	1362.26245	1628.41541	869.77252	1148.88013	1708.37988	914.13672	1046.47961	1720.95837	976.70551	925.22577	1715.20667	1032.79102	848.36859	1670.21301	1012.05145	831.24225	1717.01343	1059.56396	776.49011	1701.61304	865.4212	931.42236	1354.35571	861.74518	940.36041	1592.01538	702.70886	954.49292	1399.03577	701.59064	974.49469	1547.51318	870.77783	634.23151	1297.40271	943.64246	471.41071	1330.72791	931.66467	278.3183	1341.21692	964.30225	71.10516	1380.71326	936.95502	36.95172	1428.255	1114.5863	49.28242	1374.95276	765.16156	652.62805	1630.48474	744.35547	474.02869	1597.00903	660.98688	299.26974	1595.60217	600.16382	90.41711	1542.72571	555.57849	65.75573	1489.02954	738.17926	35.53708	1530.76099	809.11945	1675.55896	1454.63745	NaN	NaN	NaN	NaN	NaN	NaN	NaN	NaN	NaN	NaN	NaN	NaN
219	2.18	898.31836	1612.39246	1395.00696	907.48474	1621.06921	1527.81189	771.2851	1567.86731	1410.35791	784.85437	1576.16028	1540.05994	745.73651	1413.49353	1475.74524	708.93787	1100.18909	1468.52917	866.28168	1334.79907	1465.1936	908.27228	1170.65942	1458.91199	699.237	1239.47217	1576.59961	806.8587	1372.01465	1313.28638	769.39069	1174.85632	1245.7561	761.92456	1051.27625	1234.95557	777.1048	921.80865	1235.85156	787.94922	802.87622	1267.45227	762.40314	809.62048	1217.54578	771.6864	725.59027	1228.0199	836.09692	1360.91687	1627.62585	880.56061	1147.79858	1707.72656	925.42963	1045.69568	1720.35999	989.24646	925.16541	1714.04468	1046.18982	849.29675	1668.73621	1025.63989	831.59985	1715.4895	1073.76062	777.48712	1699.64771	875.69379	929.58112	1353.68396	871.01654	939.2276	1591.45361	712.60577	953.2923	1397.55896	710.99951	973.64447	1546.02161	877.41962	630.85907	1298.28809	952.64288	469.46066	1333.38281	947.65448	277.48743	1342.10364	988.99152	71.11369	1378.56482	962.54132	36.55703	1426.07373	1140.51575	50.62748	1372.875	771.87909	652.2962	1630.26782	749.664	473.72717	1597.23755	664.22113	299.87085	1595.62939	600.62848	91.40187	1542.75146	556.00244	67.51466	1489.25073	738.29742	35.46698	1530.96143	818.80634	1674.19556	1453.51099	NaN	NaN	NaN	NaN	NaN	NaN	NaN	NaN	NaN	NaN	NaN	NaN
